<svg width="67" height="61" viewBox="0 0 67 61" fill="none" xmlns="http://www.w3.org/2000/svg">
<g filter="url(#filter0_d_21_13)">
<ellipse cx="33.0665" cy="26.5" rx="29.0665" ry="26.5" fill="#BFBFBF" fill-opacity="0.74902"/>
<path d="M33.0664 21.0991C31.9142 21.0991 30.7879 21.4106 29.8298 21.9942C28.8718 22.5778 28.1251 23.4074 27.6842 24.3779C27.2432 25.3484 27.1279 26.4163 27.3527 27.4466C27.5775 28.4769 28.1323 29.4233 28.947 30.1661C29.7618 30.9089 30.7998 31.4147 31.9299 31.6197C33.06 31.8246 34.2313 31.7194 35.2958 31.3174C36.3603 30.9154 37.2702 30.2347 37.9103 29.3612C38.5505 28.4878 38.8921 27.4609 38.8921 26.4104C38.8904 25.0023 38.276 23.6522 37.1839 22.6565C36.0917 21.6608 34.611 21.1007 33.0664 21.0991ZM33.0664 29.7903C32.3332 29.7903 31.6164 29.5921 31.0068 29.2207C30.3971 28.8493 29.922 28.3215 29.6414 27.7039C29.3608 27.0863 29.2873 26.4067 29.4304 25.751C29.5734 25.0954 29.9265 24.4931 30.445 24.0205C30.9635 23.5478 31.624 23.2259 32.3432 23.0954C33.0623 22.965 33.8077 23.032 34.4851 23.2878C35.1625 23.5436 35.7415 23.9768 36.1489 24.5326C36.5563 25.0885 36.7737 25.7419 36.7737 26.4104C36.7726 27.3065 36.3816 28.1656 35.6866 28.7993C34.9916 29.4329 34.0493 29.7893 33.0664 29.7903Z" fill="#14DD94"/>
<path d="M47.6008 30.4131L45.4976 28.8347C45.8704 27.2364 45.8704 25.5845 45.4976 23.9862L47.6008 22.4077C47.8433 22.2265 48.0072 21.9725 48.0631 21.6911C48.119 21.4098 48.0632 21.1195 47.9057 20.8723L45.7467 17.4632C45.5907 17.2152 45.3428 17.0259 45.0476 16.9294C44.7523 16.8328 44.429 16.8353 44.1356 16.9363L41.5828 17.8083C40.253 16.7129 38.6841 15.8862 36.9792 15.3825L36.5313 12.9338C36.4806 12.6516 36.3213 12.3951 36.082 12.2102C35.8426 12.0254 35.5389 11.9243 35.2253 11.9251H30.9075C30.5938 11.9243 30.2902 12.0254 30.0508 12.2102C29.8115 12.395 29.6522 12.6515 29.6015 12.9337L29.1538 15.3825C27.4489 15.8862 25.88 16.7129 24.5502 17.8083L21.9972 16.9362C21.7037 16.8352 21.3805 16.8328 21.0853 16.9294C20.7901 17.0259 20.5423 17.2152 20.3862 17.4632L18.2273 20.8725C18.0699 21.1197 18.0141 21.41 18.07 21.6913C18.126 21.9727 18.2899 22.2267 18.5325 22.4078L20.6355 23.9862C20.2627 25.5845 20.2627 27.2364 20.6355 28.8347L18.5323 30.4131C18.2897 30.5943 18.1258 30.8483 18.07 31.1297C18.0141 31.411 18.0699 31.7013 18.2273 31.9485L20.3863 35.3576C20.5424 35.6056 20.7902 35.7949 21.0855 35.8914C21.3807 35.988 21.704 35.9855 21.9974 35.8845L24.5503 35.0125C25.8801 36.108 27.4489 36.9347 29.1539 37.4384L29.6015 39.8871C29.6523 40.1692 29.8115 40.4257 30.0509 40.6106C30.2902 40.7954 30.5938 40.8965 30.9075 40.8958H35.2253C35.5389 40.8966 35.8426 40.7955 36.0819 40.6106C36.3213 40.4258 36.4806 40.1693 36.5313 39.8871L36.979 37.4384C38.6839 36.9346 40.2528 36.108 41.5826 35.0125L44.1356 35.8846C44.429 35.9856 44.7523 35.988 45.0474 35.8914C45.3426 35.7949 45.5905 35.6057 45.7465 35.3577L47.9053 31.9484C48.0628 31.7012 48.1186 31.411 48.0628 31.1297C48.007 30.8484 47.8432 30.5944 47.6008 30.4131ZM44.2486 33.8607L41.0637 32.7728L40.5815 33.2155C39.2546 34.4348 37.5949 35.3093 35.7736 35.7488L35.1116 35.9079L34.5525 38.9644H31.5808L31.0219 35.9079L30.3599 35.7488C28.5386 35.3093 26.8789 34.4348 25.552 33.2155L25.0697 32.7728L21.8843 33.8607L20.3987 31.5142L23.0222 29.5452L22.8435 28.9432C22.3519 27.2844 22.3519 25.5364 22.8435 23.8776L23.0222 23.2757L20.3987 21.3067L21.8847 18.9602L25.0695 20.048L25.5518 19.6054C26.8787 18.386 28.5384 17.5115 30.3597 17.0721L31.0217 16.913L31.5805 13.8564H34.5525L35.1114 16.913L35.7734 17.0721C37.5947 17.5115 39.2544 18.386 40.5813 19.6054L41.0635 20.048L44.2484 18.9602L45.7344 21.3066L43.1109 23.2757L43.2897 23.8776C43.7812 25.5364 43.7812 27.2844 43.2897 28.9432L43.1109 29.5452L45.7344 31.5142L44.2486 33.8607Z" fill="#14DD94"/>
</g>
<defs>
<filter id="filter0_d_21_13" x="0" y="0" width="66.1331" height="61" filterUnits="userSpaceOnUse" color-interpolation-filters="sRGB">
<feFlood flood-opacity="0" result="BackgroundImageFix"/>
<feColorMatrix in="SourceAlpha" type="matrix" values="0 0 0 0 0 0 0 0 0 0 0 0 0 0 0 0 0 0 127 0" result="hardAlpha"/>
<feOffset dy="4"/>
<feGaussianBlur stdDeviation="2"/>
<feComposite in2="hardAlpha" operator="out"/>
<feColorMatrix type="matrix" values="0 0 0 0 0 0 0 0 0 0 0 0 0 0 0 0 0 0 0.25 0"/>
<feBlend mode="normal" in2="BackgroundImageFix" result="effect1_dropShadow_21_13"/>
<feBlend mode="normal" in="SourceGraphic" in2="effect1_dropShadow_21_13" result="shape"/>
</filter>
</defs>
</svg>
